<svg xmlns="http://www.w3.org/2000/svg" viewBox="0 0 64 64" id="medium-heat">
  <path d="M24 17c.6 0 1-.4 1-1v-2c0-.6-.4-1-1-1s-1 .4-1 1v2c0 .6.4 1 1 1zm19.6 36.1c-.5-.2-1.1.1-1.3.6C40.8 58.1 36.7 61 32 61c-6.1 0-11-4.9-11-11 0-3.1 1.3-6.1 3.7-8.2.2-.2.3-.5.3-.7V20.5c0-.6-.4-1-1-1s-1 .4-1 1v20.1c-2.5 2.4-4 5.8-4 9.4 0 7.2 5.8 13 13 13 5.5 0 10.4-3.5 12.3-8.7.1-.5-.1-1.1-.7-1.2z"></path>
  <path d="M41 10c0-5-4-9-9-9s-9 4-9 9c0 .6.4 1 1 1s1-.4 1-1c0-3.9 3.1-7 7-7s7 3.1 7 7v31c0 .3.1.6.3.7 2.3 2.1 3.7 5.1 3.7 8.2 0 .6.4 1 1 1s1-.4 1-1c0-3.5-1.5-6.9-4-9.4V10z"></path>
  <path d="M27.5 42.2C24.7 43.8 23 46.8 23 50c0 5 4 9 9 9s9-4 9-9c0-3-1.5-5.8-4-7.5V10c0-2.8-2.2-5-5-5s-5 2.2-5 5v29.7c0 .6.4 1 1 1s1-.4 1-1V28c1.1.5 2.3.4 3.5-.1 1.5-.8 2.5.5 2.5.5v14.7c0 .4.2.7.5.9 2.2 1.2 3.5 3.6 3.5 6.1 0 3.9-3.1 7-7 7s-7-3.1-7-7c0-2.5 1.3-4.8 3.5-6.1.5-.3.6-.9.4-1.4-.3-.5-.9-.7-1.4-.4zM35 26c-1.1-.5-2.3-.4-3.5.1-1.7.7-2.5-.5-2.5-.5V10c0-1.7 1.3-3 3-3s3 1.3 3 3v16zm11 11h-2c-.6 0-1 .4-1 1s.4 1 1 1h2c.6 0 1-.4 1-1s-.4-1-1-1zm0-6h-2c-.6 0-1 .4-1 1s.4 1 1 1h2c.6 0 1-.4 1-1s-.4-1-1-1zm0-6h-2c-.6 0-1 .4-1 1s.4 1 1 1h2c.6 0 1-.4 1-1s-.4-1-1-1zm0-6h-2c-.6 0-1 .4-1 1s.4 1 1 1h2c.6 0 1-.4 1-1s-.4-1-1-1zm-2-4h2c.6 0 1-.4 1-1s-.4-1-1-1h-2c-.6 0-1 .4-1 1s.4 1 1 1z"></path>
  <path d="M28 49c-.6 0-1 .4-1 1 0 2.8 2.2 5 5 5 .6 0 1-.4 1-1s-.4-1-1-1c-1.7 0-3-1.3-3-3 0-.6-.4-1-1-1z"></path>
</svg>
